<?xml version="1.0" standalone="no"?>
<!DOCTYPE svg PUBLIC "-//W3C//DTD SVG 20010904//EN"
 "http://www.w3.org/TR/2001/REC-SVG-20010904/DTD/svg10.dtd">
<svg version="1.0" xmlns="http://www.w3.org/2000/svg"
 width="700.000000pt" height="700.000000pt" viewBox="0 0 700.000000 700.000000"
 preserveAspectRatio="xMidYMid meet">
<metadata>
Created by potrace 1.14, written by Peter Selinger 2001-2017
</metadata>
<g transform="translate(0.000000,700.000000) scale(0.100000,-0.100000)"
fill="#000000" stroke="none">
<path d="M2815 6895 c-132 -57 -253 -109 -270 -115 -16 -7 -48 -21 -70 -31
-22 -10 -159 -68 -305 -129 -146 -62 -285 -121 -310 -132 -25 -11 -58 -26 -75
-33 -16 -8 -75 -32 -130 -55 -55 -23 -113 -47 -130 -55 -34 -15 -412 -176
-465 -198 -34 -14 -38 -21 -138 -273 -57 -142 -107 -268 -112 -279 -12 -26
-13 -29 -206 -510 -91 -225 -169 -419 -174 -430 -9 -20 -71 -173 -176 -435
-30 -74 -59 -144 -64 -155 -48 -105 -183 -456 -182 -475 1 -14 15 -59 32 -100
17 -41 97 -237 177 -435 80 -198 151 -373 158 -390 7 -16 36 -88 65 -160 111
-277 141 -351 150 -370 21 -46 430 -1067 430 -1073 1 -12 570 -249 571 -238 1
6 2 796 4 1756 1 960 5 1756 8 1770 3 14 8 46 11 71 96 702 558 1302 1211
1572 76 32 184 66 255 81 l55 12 0 54 c-1 52 -11 187 -20 275 -3 22 -7 69 -10
105 -7 91 -16 199 -20 240 -3 19 -7 73 -11 120 -8 100 -9 108 -15 113 -2 2
-112 -42 -244 -98z"/>
<path d="M3936 6983 c-2 -10 -7 -54 -11 -98 -6 -84 -9 -122 -20 -245 -4 -41
-8 -95 -10 -119 -5 -70 -16 -184 -20 -211 -2 -14 -7 -68 -10 -121 l-7 -96 28
-8 c16 -5 36 -10 45 -11 87 -17 302 -101 419 -163 59 -31 213 -127 243 -151
120 -97 166 -138 241 -214 325 -331 529 -786 563 -1256 3 -52 7 -854 7 -1782
0 -1092 4 -1688 10 -1688 8 0 168 66 291 120 22 10 91 39 153 65 79 33 116 54
122 69 5 11 39 95 76 186 36 91 72 179 80 197 8 17 14 34 14 38 0 4 7 21 15
38 8 18 54 131 103 252 215 530 348 858 389 960 24 61 48 119 53 130 5 11 57
139 116 285 58 146 122 303 140 349 l34 83 -81 202 c-45 110 -101 251 -126
311 -44 108 -287 711 -377 935 -26 63 -51 124 -55 135 -5 11 -23 56 -41 100
-17 44 -35 89 -40 100 -5 11 -66 162 -136 335 -69 173 -132 329 -139 345 -7
17 -16 40 -20 53 -8 26 9 18 -385 185 -405 172 -768 326 -810 344 -19 8 -48
21 -65 28 -16 7 -57 24 -90 38 -33 15 -184 79 -335 143 -249 105 -332 141
-352 151 -4 2 -9 -5 -12 -14z"/>
<path d="M2030 3507 l0 -322 163 -69 c89 -38 180 -77 202 -87 22 -10 103 -44
180 -77 l140 -59 2 -1259 c1 -692 2 -1268 2 -1280 1 -15 15 -26 59 -44 31 -13
80 -33 107 -46 28 -12 177 -76 333 -143 l283 -121 97 41 c97 41 142 61 240
105 29 13 58 24 65 24 7 0 17 4 23 8 5 5 50 26 99 47 50 20 108 45 130 55 22
9 59 25 83 35 38 16 42 21 43 54 0 20 1 597 1 1284 0 885 4 1247 11 1247 6 0
161 64 344 142 l333 143 0 322 c0 178 -2 323 -5 323 -5 0 -444 -185 -500 -210
-29 -13 -639 -272 -707 -300 l-58 -24 -2 -1309 -3 -1309 -96 -42 -95 -42 -100
41 -99 41 -2 1140 c-2 626 -3 1216 -3 1310 l0 170 -102 43 c-57 24 -116 49
-133 56 -16 8 -106 46 -200 85 -93 39 -183 77 -200 85 -16 7 -91 38 -165 70
-74 31 -148 62 -165 70 -16 7 -75 32 -130 55 -55 23 -113 48 -129 56 -16 8
-33 14 -38 14 -4 0 -8 -145 -8 -323z"/>
</g>
</svg>
