<svg xmlns="http://www.w3.org/2000/svg" viewBox="0 0 1723 580">
   
    <path 
        d="M287.39,11.47h122V364.55h84.34V467H409.39V568.53H292.31V467H0V365.37Zm4.92,353.08V161.38L127.73,364.55Z" />
    <path 
        d="M674.09,499.72Q611,418.61,611,290T674.09,81.1Q737.95,0,864.86,0t190,81.1q63.87,80.28,63.87,208.9t-63.87,209.72q-63,80.28-190,80.28T674.09,499.72Zm190.77-27.86q131,0,131-181.86t-131-181.86q-131,0-131,181.86T864.86,471.86Z" />
    <path 
        d="M1516.67,11.47h122V364.55H1723V467h-84.34V568.53H1521.58V467H1229.27V365.37Zm4.91,353.08V161.38L1357,364.55Z" />
</svg>