<svg id="Layer_1" data-name="Layer 1" xmlns="http://www.w3.org/2000/svg" viewBox="0 0 11.89 12.22"><path d="M10.76,6.44V5.77L11.6,5a.92.92,0,0,0,.28-.53.87.87,0,0,0-.12-.59l-1-1.75a1,1,0,0,0-.32-.32A.83.83,0,0,0,10,1.73a.92.92,0,0,0-.28.05l-1.06.36a3.25,3.25,0,0,0-.57-.33L7.83.7A.87.87,0,0,0,7,0h-2A.87.87,0,0,0,4,.7L3.81,1.81a3.25,3.25,0,0,0-.57.33l-1-.38-.28,0a.83.83,0,0,0-.44.12.89.89,0,0,0-.32.32l-1,1.75A.87.87,0,0,0,.31,5l.82.76v.66l-.82.74A.84.84,0,0,0,0,7.7a.9.9,0,0,0,.12.6l1,1.75a.89.89,0,0,0,.32.32.93.93,0,0,0,.44.11,1,1,0,0,0,.28,0l1.06-.36a5.3,5.3,0,0,0,.57.33l.22,1.1a.88.88,0,0,0,.31.51.9.9,0,0,0,.57.2H7a.9.9,0,0,0,.57-.2.88.88,0,0,0,.31-.51l.22-1.1a6.65,6.65,0,0,0,.58-.33l1.06.36a.86.86,0,0,0,.28,0,.85.85,0,0,0,.76-.43l1-1.75a.88.88,0,0,0,.11-.59.8.8,0,0,0-.29-.51ZM10,9.61,8.47,9.1a3.89,3.89,0,0,1-1.18.69L7,11.36H4.91L4.6,9.8a4.08,4.08,0,0,1-1.18-.68l-1.5.49-1-1.75L2.07,6.81a3.94,3.94,0,0,1,0-1.37L.88,4.36l1-1.75,1.5.51A3.89,3.89,0,0,1,4.6,2.43L4.91.86H7l.31,1.55a3.89,3.89,0,0,1,1.18.69L10,2.61l1,1.75-1.19,1a3.94,3.94,0,0,1,0,1.37L11,7.86Z"/><path d="M5.94,8.73A2.62,2.62,0,0,1,4.09,4.25a2.56,2.56,0,0,1,1.34-.72A2.64,2.64,0,0,1,7,3.68a2.66,2.66,0,0,1,1.18,1,2.7,2.7,0,0,1,.25,2.47A2.62,2.62,0,0,1,7,8.54,2.49,2.49,0,0,1,5.94,8.73Zm0-4.37a1.53,1.53,0,0,0-.67.12,1.72,1.72,0,0,0-.58.38,1.65,1.65,0,0,0-.37.57,1.79,1.79,0,0,0-.13.68,1.83,1.83,0,0,0,.5,1.25,1.88,1.88,0,0,0,.58.38,1.89,1.89,0,0,0,.67.12,2,2,0,0,0,.68-.12,1.84,1.84,0,0,0,.57-.38,1.58,1.58,0,0,0,.38-.58,1.53,1.53,0,0,0,.12-.67,1.6,1.6,0,0,0-.12-.68,1.54,1.54,0,0,0-.38-.57,1.68,1.68,0,0,0-.57-.38A1.6,1.6,0,0,0,5.94,4.36Z"/></svg>