<svg xmlns="http://www.w3.org/2000/svg" viewBox="0 0 21.29 21.29">

    <path
        d="M6.1,20.52V8L9.58,1h.62a1.16,1.16,0,0,1,1,.48,2.07,2.07,0,0,1,.45,1.09,6.42,6.42,0,0,1-.13,1.81,16,16,0,0,0-.74,3.49h7.86a1.87,1.87,0,0,1,1.9,1.8,1.72,1.72,0,0,1-.09.63L18.58,19a1.91,1.91,0,0,1-1.85,1.49Z" />
    <path fill="currentColor"
        d="M9.2,0,5.65,7.1H0V21.29H16.72a2.65,2.65,0,0,0,2.6-2.11l1.91-8.87a2.66,2.66,0,0,0-2.07-3.15,2.39,2.39,0,0,0-.53-.06h-6.9a9.32,9.32,0,0,1,.49-2.39,5.88,5.88,0,0,0,.2-2A2.66,2.66,0,0,0,11.7.89,2.63,2.63,0,0,0,9.76,0Zm1,2c.06,0,.15,0,.19.08a1,1,0,0,1,.25.58,5,5,0,0,1-.11,1.5,16.72,16.72,0,0,0-.77,3.77l-.06.94h8.93a.87.87,0,0,1,.9.84.92.92,0,0,1,0,.29L17.6,18.82a.9.9,0,0,1-.88.7H7.1V8.21ZM1.77,8.87H5.32V19.52H1.77Zm1.78,8a.89.89,0,1,0,.89.89h0a.87.87,0,0,0-.87-.89h0Z" />
</svg>