<svg xmlns="http://www.w3.org/2000/svg" viewBox="0 0 68 57">
    <path
        d="M68,0V9.7A18.93,18.93,0,0,0,59.47,14,17.56,17.56,0,0,0,55,20.41q-1.56,3.68-2,10.87,7.27,0,10.72,4.06a13.63,13.63,0,0,1,3.44,8.84,12.07,12.07,0,0,1-3.84,9.07A12.34,12.34,0,0,1,54.38,57Q47.81,57,43,51.29T38.26,35.81A36,36,0,0,1,42,19.63,39.08,39.08,0,0,1,52.27,6.57,29.55,29.55,0,0,1,68,0ZM29.74,0V9.7A19.47,19.47,0,0,0,21.21,14a17.44,17.44,0,0,0-4.46,6.41q-1.58,3.68-2,10.87,7.27,0,10.72,4.06a13.58,13.58,0,0,1,3.44,8.84,12.21,12.21,0,0,1-3.75,9.07A12.37,12.37,0,0,1,16.2,57C11.76,57,8,55.1,4.77,51.29S0,42.38,0,35.81A35.88,35.88,0,0,1,3.76,19.63,39.08,39.08,0,0,1,14,6.57,29.52,29.52,0,0,1,29.74,0Z" />
</svg>