<svg width="12" height="12" viewBox="0 0 12 12" xmlns="http://www.w3.org/2000/svg">
    <path
        d="M6.67491 5.99735L11.7401 0.927206C11.8295 0.837405 11.8796 0.715849 11.8795 0.589163C11.8794 0.462478 11.8291 0.340989 11.7397 0.251307C11.5606 0.0731066 11.2451 0.0722067 11.0642 0.252207L6.00035 5.32235L0.934705 0.250857C0.754705 0.0731066 0.439254 0.0740065 0.260154 0.251756C0.2157 0.296034 0.180509 0.348721 0.156635 0.406745C0.132761 0.464768 0.120683 0.526965 0.121104 0.589707C0.121104 0.717507 0.170604 0.837206 0.260154 0.925856L5.32536 5.9969L0.260604 11.0684C0.171228 11.1583 0.121176 11.2801 0.121429 11.4069C0.121682 11.5337 0.17222 11.6552 0.261955 11.7448C0.348805 11.8307 0.471654 11.8802 0.598554 11.8802H0.601254C0.728604 11.8798 0.851454 11.8298 0.936504 11.743L6.00035 6.6728L11.066 11.7443C11.1556 11.8334 11.2753 11.8829 11.4022 11.8829C11.4649 11.8831 11.5271 11.8709 11.5851 11.8469C11.6431 11.823 11.6958 11.7878 11.7402 11.7435C11.7845 11.6991 11.8197 11.6464 11.8436 11.5884C11.8676 11.5304 11.8798 11.4682 11.8796 11.4055C11.8796 11.2781 11.8301 11.158 11.7401 11.0693L6.67491 5.99735Z" />
</svg>