<svg width="56" height="56" viewBox="0 0 56 56" xmlns="http://www.w3.org/2000/svg">
    <path fill-rule="evenodd" clip-rule="evenodd"
        d="M28.5299 34.9498C28.5299 34.9498 28.9089 34.9077 29.103 34.6988C29.2807 34.5075 29.2745 34.1464 29.2745 34.1464C29.2745 34.1464 29.2509 32.4602 30.0325 32.2112C30.8029 31.9664 31.792 33.8418 32.8417 34.563C33.6346 35.1083 34.2365 34.9889 34.2365 34.9889L37.0415 34.9498C37.0415 34.9498 38.5082 34.8593 37.8129 33.704C37.7554 33.6093 37.4072 32.8491 35.7279 31.2874C33.9684 29.6526 34.2047 29.917 36.3226 27.0889C37.6126 25.3667 38.1282 24.3153 37.967 23.8657C37.8139 23.4357 36.8649 23.5499 36.8649 23.5499L33.7075 23.5694C33.7075 23.5694 33.4734 23.5375 33.2998 23.6414C33.1303 23.7433 33.0204 23.9809 33.0204 23.9809C33.0204 23.9809 32.5212 25.3132 31.8546 26.4469C30.4485 28.8378 29.8867 28.9644 29.6566 28.8162C29.1215 28.4695 29.255 27.4253 29.255 26.6836C29.255 24.3657 29.6063 23.3997 28.572 23.1497C28.2289 23.0664 27.9763 23.0118 27.0981 23.0026C25.9713 22.9913 25.0182 23.0067 24.4779 23.2711C24.1184 23.447 23.8411 23.84 24.0106 23.8626C24.2191 23.8904 24.6916 23.9902 24.9422 24.3318C25.2657 24.7731 25.2544 25.7628 25.2544 25.7628C25.2544 25.7628 25.4403 28.4911 24.8199 28.8296C24.3947 29.0621 23.8113 28.5878 22.5572 26.4181C21.9153 25.3071 21.4305 24.0787 21.4305 24.0787C21.4305 24.0787 21.337 23.8493 21.1696 23.7258C20.9673 23.5766 20.6848 23.5303 20.6848 23.5303L17.6846 23.5499C17.6846 23.5499 17.2337 23.5622 17.0683 23.7587C16.9215 23.9326 17.057 24.2937 17.057 24.2937C17.057 24.2937 19.406 29.7987 22.0663 32.5733C24.5056 35.1165 27.2747 34.9498 27.2747 34.9498H28.5299Z"
         />
</svg>