<svg id="Layer_1" data-name="Layer 1" xmlns="http://www.w3.org/2000/svg" viewBox="0 0 14.38 7.5"><path d="M7.19,0C3.28,0,.28,3.44.28,3.44L0,3.75l.28.31S3,7.18,6.67,7.47a4.41,4.41,0,0,0,.52,0,4.58,4.58,0,0,0,.53,0c3.65-.29,6.39-3.41,6.39-3.41l.27-.31-.27-.31S11.1,0,7.19,0Zm0,.94A6.68,6.68,0,0,1,10,1.6a3.19,3.19,0,0,1,.47,1.68A3.28,3.28,0,0,1,7.56,6.55H6.83A3.28,3.28,0,0,1,4.37,1.61h0A6.9,6.9,0,0,1,7.19.94Zm0,.94A1.41,1.41,0,1,0,8.6,3.28,1.4,1.4,0,0,0,7.19,1.88Zm-4.1.43a4.52,4.52,0,0,0-.12,1,4.19,4.19,0,0,0,.65,2.24A11,11,0,0,1,1.35,3.75,11.25,11.25,0,0,1,3.09,2.31Zm8.2,0A12.06,12.06,0,0,1,13,3.75a11,11,0,0,1-2.27,1.77,4.18,4.18,0,0,0,.64-2.24A4,4,0,0,0,11.29,2.31Z"/></svg>