<svg xmlns="http://www.w3.org/2000/svg" viewBox="0 0 19.8 11.51">
  
    <path 
        d="M17.62,7.67l-.13.25L17.28,8h0a9.56,9.56,0,0,1,1.88,2.17c.09.15.18.36.11.49s-.46.26-.6.27L16,11A1.53,1.53,0,0,1,15,10.65a6.3,6.3,0,0,1-1.08-1.06c-.54-.62-1-1.16-1.51-1.16l-.22,0c-.86.28-.86,1.85-.86,2a.42.42,0,0,1-.09.22.49.49,0,0,1-.35,0H9.66a6,6,0,0,1-4.57-2C2.7,6.27.55,1.33.53,1.29a1,1,0,0,1,0-.21A.84.84,0,0,1,.88,1H3.64a.5.5,0,0,1,.29.11.73.73,0,0,1,.16.23,17.3,17.3,0,0,0,1,2.16c1.18,2,1.8,2.64,2.38,2.31s.61-2.42.57-3a2.9,2.9,0,0,0-.34-1.46A1.35,1.35,0,0,0,7,.86a.78.78,0,0,1,.2-.14A6.45,6.45,0,0,1,9.53.5a4.83,4.83,0,0,1,1.29.12c.5.12.53.39.47,1.71,0,.37,0,.79,0,1.29v.31c0,.7,0,1.5.48,1.86a.5.5,0,0,0,.41.06c.29-.06.83-.38,2-2.31A20,20,0,0,0,15.2,1.25a.69.69,0,0,1,.13-.2A.82.82,0,0,1,15.6,1h2.93c.34,0,.72,0,.76.13s.06.66-1.49,2.71l-.66.86c-1.36,1.78-1.32,2,.14,3.33l.21-.11.13-.25c-1.2-1.12-1.24-1.16-.08-2.66l.66-.87C19.84,2,19.88,1.28,19.76,1,19.56.41,18.65.48,18.5.5H15.6a1.21,1.21,0,0,0-.52.12,1.12,1.12,0,0,0-.34.43,17.31,17.31,0,0,1-1.05,2.23C12.43,5.41,12,5.37,12,5.38c-.29-.21-.28-.89-.26-1.44V3.62c0-.49,0-.91,0-1.27.05-1.24.09-2-.89-2.22A5.09,5.09,0,0,0,9.53,0,6.46,6.46,0,0,0,7,.27C6.73.41,6.34.75,6.4,1l.08.23.18,0a1.08,1.08,0,0,1,.69.33A2.5,2.5,0,0,1,7.59,2.8c.08,1.24,0,2.44-.3,2.57s-.5,0-1.72-2.12a19,19,0,0,1-1-2.09,1.06,1.06,0,0,0-.3-.43A1,1,0,0,0,3.64.5H.88A1.15,1.15,0,0,0,.11.76a.8.8,0,0,0,0,.72c.09.21,2.21,5.07,4.66,7.61a6.45,6.45,0,0,0,5,2.15h1.1a.9.9,0,0,0,.76-.2.88.88,0,0,0,.23-.56c0-.45.11-1.41.52-1.54.26-.09.78.5,1.2,1a6.66,6.66,0,0,0,1.17,1.15,2.29,2.29,0,0,0,1.27.44h.15l2.59,0a1.31,1.31,0,0,0,1-.53,1,1,0,0,0-.13-1A10,10,0,0,0,17.62,7.67Z" />
</svg>