<svg id="Layer_1" data-name="Layer 1" xmlns="http://www.w3.org/2000/svg" xmlns:xlink="http://www.w3.org/1999/xlink" viewBox="0 0 12 16"><defs><style>.cls-1{fill:none;}.cls-2{clip-path:url(#clip-path);}</style><clipPath id="clip-path"><rect class="cls-1" x="-3" y="-1.5" width="18" height="18"/></clipPath></defs><g class="cls-2"><path d="M7.19,0a18.12,18.12,0,0,1,.49,3.6A2.6,2.6,0,0,1,5.12,6.4,2.73,2.73,0,0,1,2.4,3.6l0-.27A10.37,10.37,0,0,0,0,10a6,6,0,0,0,12,0A12.78,12.78,0,0,0,7.19,0ZM5.91,13.5a2.38,2.38,0,0,1-2.42-2.35A2.34,2.34,0,0,1,5.6,8.81,5.78,5.78,0,0,0,9.06,6.88a10.58,10.58,0,0,1,.45,3A3.6,3.6,0,0,1,5.91,13.5Z"/></g></svg>