<svg xmlns="http://www.w3.org/2000/svg" viewBox="0 0 21.29 21.29">
  
    <path fill="currentColor"
        d="M9.2,0,5.65,7.1H0V21.29H16.72a2.66,2.66,0,0,0,2.6-2.11l1.91-8.87a2.67,2.67,0,0,0-2.6-3.21h-6.9a9.4,9.4,0,0,1,.49-2.39,5.94,5.94,0,0,0,.2-2A2.64,2.64,0,0,0,11.7.89,2.62,2.62,0,0,0,9.76,0Zm1,2c.06,0,.15,0,.19.08a1,1,0,0,1,.25.58,5.24,5.24,0,0,1-.11,1.5,16.76,16.76,0,0,0-.77,3.77l-.06.94h8.93A.87.87,0,0,1,19.49,10L17.6,18.82a.89.89,0,0,1-.88.7H7.1V8.21ZM1.77,8.87H5.32V19.52H1.77Zm1.78,8a.89.89,0,1,0,.89.88A.88.88,0,0,0,3.55,16.86Z" />
    <path 
        d="M10.2,2c.06,0,.15,0,.19.08a1,1,0,0,1,.25.58,5.24,5.24,0,0,1-.11,1.5,16.76,16.76,0,0,0-.77,3.77l-.06.94h8.93A.87.87,0,0,1,19.49,10L17.6,18.82a.89.89,0,0,1-.88.7H7.1V8.21Z" />
</svg>