<svg id="Layer_1" data-name="Layer 1" xmlns="http://www.w3.org/2000/svg" viewBox="0 0 18 18"><path d="M7.78,0l-3,6H0V18H14.13a2.26,2.26,0,0,0,2.2-1.78L18,8.72A2.26,2.26,0,0,0,15.75,6H9.91a8.41,8.41,0,0,1,.42-2,5,5,0,0,0,.17-1.73A2.24,2.24,0,0,0,9.89.75,2.23,2.23,0,0,0,8.25,0Zm.84,1.69c.05,0,.13,0,.17.07A.82.82,0,0,1,9,2.25a4.85,4.85,0,0,1-.09,1.27A14.35,14.35,0,0,0,8.25,6.7l-.05.8h7.55a.73.73,0,0,1,.72.91l-1.59,7.5a.75.75,0,0,1-.75.59H6V6.94ZM1.5,7.5h3v9h-3ZM3,14.25a.75.75,0,1,0,.75.75A.76.76,0,0,0,3,14.25Z"/></svg>