<svg id="Layer_1" data-name="Layer 1" xmlns="http://www.w3.org/2000/svg" viewBox="0 0 20.99 22.75"><path d="M8.31,2.11a13.3,13.3,0,0,0-.16,5.22A13.15,13.15,0,0,0,10,12.21,13.37,13.37,0,0,0,13.65,16,13.2,13.2,0,0,0,18.46,18a9.77,9.77,0,0,1-7,3h-.37A9.71,9.71,0,0,1,8.31,2.11ZM9.6,0H9.45a11.46,11.46,0,0,0,1.6,22.74h.43a11.47,11.47,0,0,0,9.36-4.86.86.86,0,0,0,.15-.44.86.86,0,0,0-.4-.79,1,1,0,0,0-.43-.14,11.54,11.54,0,0,1-4.94-1.62A11.44,11.44,0,0,1,10.4,1.21a1,1,0,0,0,.06-.42A.93.93,0,0,0,10.31.4.83.83,0,0,0,10,.11,1,1,0,0,0,9.6,0Z"/></svg>