<svg width="56" height="56" viewBox="0 0 56 56" xmlns="http://www.w3.org/2000/svg">
    <path fill-rule="evenodd" clip-rule="evenodd"
        d="M27.9842 20.3272C29.4084 20.3272 30.5669 21.3812 30.5669 22.6775C30.5669 23.9727 29.4084 25.0274 27.9842 25.0274C26.561 25.0274 25.4014 23.9727 25.4014 22.6775C25.4014 21.3812 26.561 20.3272 27.9842 20.3272ZM27.9842 28.3532C24.5441 28.3532 21.7464 25.8073 21.7464 22.6775C21.7464 19.5466 24.5441 17 27.9842 17C31.4249 17 34.2219 19.5466 34.2219 22.6775C34.2219 25.8073 31.4249 28.3532 27.9842 28.3532ZM30.5239 32.9869L34.0109 36.1609C34.7252 36.8097 34.7252 37.8634 34.0109 38.5129C33.2973 39.1624 32.1407 39.1624 31.4278 38.5129L27.9994 35.3939L24.5739 38.5129C24.2167 38.8373 23.7487 38.9997 23.2807 38.9997C22.8134 38.9997 22.3461 38.8373 21.989 38.5129C21.2753 37.8634 21.2753 36.8104 21.9882 36.1609L25.4756 32.9869C24.2059 32.7237 22.9814 32.2658 21.8535 31.6218C20.9999 31.1319 20.7435 30.1058 21.2813 29.3282C21.8176 28.5497 22.9455 28.3153 23.8006 28.8051C26.3542 30.2671 29.6438 30.2674 32.1989 28.8051C33.0539 28.3153 34.1815 28.5497 34.7189 29.3282C35.2567 30.1051 34.9996 31.1319 34.146 31.6218C33.0181 32.2665 31.7936 32.7237 30.5239 32.9869Z"
        />
</svg>