<svg width="56" height="56" viewBox="0 0 56 56" xmlns="http://www.w3.org/2000/svg">
    <path fill-rule="evenodd" clip-rule="evenodd"
        d="M36.3939 21.2458C32.9525 17.6784 27.246 16.9701 22.9175 19.527C17.2582 22.8689 17.1446 29.3209 19.2789 32.9883C22.4353 38.417 29.1961 38.5212 31.6239 37.4938C33.2311 36.8152 32.5175 34.739 30.9682 35.358C27.9125 36.5833 22.7696 35.3559 20.9718 31.2375C19.3218 27.4617 21.021 23.4433 23.6718 21.6266C26.166 19.9184 30.8589 19.4185 34.3539 22.4562C38.1082 25.7173 36.5161 31.3396 35.1853 32.699C34.8446 33.0457 34.2296 32.767 34.2832 32.2267L34.2789 23.9964C34.2789 23.7645 34.1182 23.0327 33.3403 23.0327H33.2139C32.7146 23.0327 32.3568 23.4326 32.3568 23.9602V23.9581C31.2489 22.8562 29.7403 22.152 28.1353 22.152C24.9639 22.152 22.1739 24.9536 22.1739 28.1339C22.1739 31.2822 24.9639 34.0519 28.1353 34.0519C29.7403 34.0519 31.2125 33.4158 32.3203 32.3246L32.3375 32.9117C32.3225 34.7092 34.6839 35.909 36.2739 34.6752C39.7818 31.9608 39.9918 24.9749 36.3939 21.2458ZM28.1139 32.1097C26.001 32.1097 24.3896 30.6036 24.3896 28.219C24.3896 26.0896 25.7225 24.2134 28.1225 24.2134H28.2018C30.2825 24.2134 32.0053 25.6003 32.1253 27.9041L32.1296 28.37C32.0203 30.3973 30.4711 32.1097 28.1139 32.1097Z"
         />
</svg>