<svg id="Layer_1" data-name="Layer 1" xmlns="http://www.w3.org/2000/svg" viewBox="0 0 20.12 17"><path d="M5.76,17A12.17,12.17,0,0,1,.09,15.6l.12-.47a8.46,8.46,0,0,0,5.32-1.84,4.3,4.3,0,0,1-3.85-2.57l-.17-.39.43,0a4.22,4.22,0,0,0,1.33-.08V10.2A4.31,4.31,0,0,1,0,6.42L0,6l.38.16A4.12,4.12,0,0,0,2,6.5H2A4.19,4.19,0,0,1,.06,2.94a4.31,4.31,0,0,1,.4-1.81L.62.78l.26.29a12.26,12.26,0,0,0,8.6,4.2h0a4.6,4.6,0,0,1-.11-1A4.28,4.28,0,0,1,13.64,0,4.23,4.23,0,0,1,16.8,1.36h0A8.91,8.91,0,0,0,18.91.64l.68-.33L19.24,1a4.16,4.16,0,0,1-1.43,1.6l0,.08a7.78,7.78,0,0,0,1.46-.35L20.12,2l-.54.67A8.6,8.6,0,0,1,18,4.23h0c0,.19,0,.36,0,.56A12.09,12.09,0,0,1,5.76,17ZM1.21,15.58a11.82,11.82,0,0,0,4.55.92A11.59,11.59,0,0,0,17.47,4.79c0-.19,0-.36,0-.53V4l.22-.16a7.07,7.07,0,0,0,.95-.8,9.32,9.32,0,0,1-.92.17l-.2,0-.29-.84.17-.11a3.68,3.68,0,0,0,1-.83,8.93,8.93,0,0,1-1.45.42l-.28.06-.19-.21A3.79,3.79,0,0,0,9.87,4.29a3.69,3.69,0,0,0,.1.87l.14.64-.66,0A12.74,12.74,0,0,1,.77,1.7,3.76,3.76,0,0,0,.56,2.94,3.71,3.71,0,0,0,2.24,6.08L3.66,7H2A4.42,4.42,0,0,1,.59,6.78a3.81,3.81,0,0,0,3,3l.19,0,0,.88-.19.05a4.73,4.73,0,0,1-1.26.17h0a3.78,3.78,0,0,0,3.21,1.9l1.4,0-1.1.87A9,9,0,0,1,1.21,15.58Z"/></svg>