<svg width="14" height="14" viewBox="0 0 14 14" fill="none" xmlns="http://www.w3.org/2000/svg">
<path fill-rule="evenodd" clip-rule="evenodd" d="M7 0.4375C8.8122 0.4375 10.4526 1.1723 11.64 2.36002L10.0935 3.90654C9.3018 3.1148 8.2081 2.62508 7 2.62508C4.5838 2.62508 2.62508 4.5838 2.62508 7.00002C2.62508 9.41624 4.5838 11.375 7 11.375C9.0536 11.375 10.7764 9.9599 11.2473 8.05174H8.87504V5.75004H11.1934H13.4431C13.5211 6.15476 13.5625 6.57252 13.5625 7.00002C13.5625 7.05596 13.5618 7.11174 13.5604 7.16734L13.5604 7.1694L13.5603 7.17064C13.5589 7.22528 13.5568 7.27974 13.5541 7.33402L13.5537 7.34142C13.551 7.39384 13.5477 7.44612 13.5438 7.49822L13.5427 7.51206C13.5389 7.56124 13.5346 7.61028 13.5297 7.65914L13.5272 7.68348C13.5226 7.72812 13.5175 7.77264 13.5119 7.81702L13.5071 7.85512C13.5018 7.89542 13.4962 7.93558 13.4902 7.97564C13.4877 7.9925 13.4851 8.00932 13.4825 8.02614L13.4784 8.05174H13.4782C12.9749 11.1761 10.2663 13.5625 7 13.5625C3.37564 13.5625 0.4375 10.6244 0.4375 7.00002C0.4375 3.37562 3.37564 0.4375 7 0.4375Z" fill="white"/>
</svg>
