<svg width="56" height="56" viewBox="0 0 56 56" fill="none" xmlns="http://www.w3.org/2000/svg">
<path fill-rule="evenodd" clip-rule="evenodd" d="M28 18.8125C30.5371 18.8125 32.8336 19.8412 34.496 21.504L32.3309 23.6692C31.2225 22.5607 29.6913 21.8751 28 21.8751C24.6173 21.8751 21.8751 24.6173 21.8751 28C21.8751 31.3827 24.6173 34.1249 28 34.1249C30.875 34.1249 33.287 32.1439 33.9463 29.4724H30.6251V26.2501H33.8708H37.0203C37.1296 26.8167 37.1875 27.4015 37.1875 28C37.1875 28.0783 37.1865 28.1564 37.1846 28.2343L37.1845 28.2372L37.1844 28.2389C37.1825 28.3154 37.1796 28.3916 37.1757 28.4676L37.1752 28.478C37.1714 28.5514 37.1668 28.6246 37.1613 28.6975L37.1598 28.7169C37.1545 28.7857 37.1484 28.8544 37.1416 28.9228L37.1381 28.9569C37.1316 29.0194 37.1245 29.0817 37.1167 29.1438L37.1099 29.1972C37.1026 29.2536 37.0947 29.3098 37.0863 29.3659C37.0828 29.3895 37.0791 29.413 37.0754 29.4366L37.0697 29.4724H37.0695C36.3649 33.8465 32.5728 37.1876 28 37.1876C22.9259 37.1876 18.8125 33.0742 18.8125 28C18.8125 22.9259 22.9259 18.8125 28 18.8125Z" fill="white"/>
</svg>
