<svg width="56" height="56" viewBox="0 0 56 56" fill="none" xmlns="http://www.w3.org/2000/svg">
<path fill-rule="evenodd" clip-rule="evenodd" d="M27.2313 24.2876L27.2725 24.9848L26.5857 24.8994C24.0855 24.5722 21.9013 23.4624 20.0468 21.5986L19.1402 20.6738L18.9066 21.3568C18.4121 22.8791 18.7281 24.4868 19.7583 25.5681C20.3078 26.1657 20.1842 26.251 19.2363 25.8953C18.9066 25.7815 18.6182 25.6962 18.5907 25.7388C18.4945 25.8384 18.8242 27.1331 19.0852 27.6453C19.4424 28.3567 20.1705 29.0539 20.9672 29.4665L21.6403 29.7937L20.8436 29.8079C20.0743 29.8079 20.0468 29.8221 20.1292 30.1209C20.404 31.0457 21.4892 32.0274 22.6981 32.4542L23.5498 32.753L22.808 33.2083C21.709 33.8628 20.4177 34.2327 19.1264 34.2611C18.5083 34.2754 18 34.3323 18 34.3749C18 34.5172 19.6759 35.314 20.6513 35.627C23.5773 36.5518 27.0527 36.1534 29.6628 34.5741C31.5173 33.4502 33.3718 31.2164 34.2372 29.0539C34.7043 27.9014 35.1713 25.7958 35.1713 24.7856C35.1713 24.1311 35.2126 24.0458 35.9818 23.2633C36.4352 22.808 36.861 22.31 36.9434 22.1677C37.0808 21.8974 37.0671 21.8974 36.3665 22.1393C35.1988 22.5661 35.034 22.5092 35.6109 21.869C36.0368 21.4137 36.5451 20.5885 36.5451 20.3466C36.5451 20.3039 36.339 20.3751 36.1055 20.5031C35.8582 20.6454 35.3087 20.8588 34.8966 20.9869L34.1548 21.2287L33.4817 20.7592C33.1108 20.5031 32.5888 20.2186 32.314 20.1332C31.6134 19.934 30.542 19.9625 29.91 20.1901C28.1929 20.8303 27.1077 22.4807 27.2313 24.2876Z" fill="white"/>
</svg>
