<svg id="Layer_1" data-name="Layer 1" xmlns="http://www.w3.org/2000/svg" viewBox="0 0 7.22 12.24" fill="white"><path d="M3.61,6.4a3.2,3.2,0,1,1,3.2-3.2A3.21,3.21,0,0,1,3.61,6.4Zm0-4.88A1.68,1.68,0,1,0,5.29,3.2,1.69,1.69,0,0,0,3.61,1.52Z"/><path d="M7.05,6.72a.82.82,0,0,0-1.12-.16,4.2,4.2,0,0,1-2.32.64,4.2,4.2,0,0,1-2.32-.64.78.78,0,0,0-1.12.16A.78.78,0,0,0,.33,7.84a5,5,0,0,0,2.28.88L.49,10.88A.77.77,0,0,0,.49,12a.79.79,0,0,0,.56.24A.79.79,0,0,0,1.61,12l2-2,2,2a.77.77,0,0,0,1.12,0,.77.77,0,0,0,0-1.12L4.61,8.72a6.27,6.27,0,0,0,2.28-.88A.79.79,0,0,0,7.05,6.72Z"/></svg>