<svg width="12" height="12" viewBox="0 0 12 12" fill="none" xmlns="http://www.w3.org/2000/svg">
<path d="M7.84175 0H4.15825C0.79685 0 0 0.79685 0 4.15825V7.84176C0 11.2031 0.79685 12 4.15825 12H7.84175C11.2031 12 12 11.2031 12 7.84176V4.15825C12 0.79685 11.1953 0 7.84175 0ZM9.68745 8.56023H8.81635C8.48636 8.56023 8.38474 8.29849 7.79113 7.69701C7.27552 7.19715 7.04715 7.13078 6.92003 7.13078C6.74041 7.13078 6.68942 7.1814 6.68942 7.42777V8.21487C6.68942 8.42599 6.62304 8.55273 6.06431 8.55273C5.14034 8.55273 4.11512 7.994 3.39627 6.95303C2.31218 5.42758 2.01556 4.28499 2.01556 4.04875C2.01556 3.92163 2.06619 3.80276 2.3103 3.80276H3.18328C3.40414 3.80276 3.48814 3.90438 3.57401 4.14062C4.00562 5.38671 4.72448 6.4783 5.02109 6.4783C5.13059 6.4783 5.18121 6.42767 5.18121 6.14831V4.86135C5.14784 4.26774 4.83547 4.21674 4.83547 4.006C4.83547 3.90438 4.91947 3.80276 5.05409 3.80276H6.42692C6.61254 3.80276 6.68079 3.90438 6.68079 4.123V5.85919C6.68079 6.04669 6.76479 6.11306 6.81541 6.11306C6.92491 6.11306 7.01866 6.04669 7.22152 5.84344C7.8485 5.14034 8.29774 4.05625 8.29774 4.05625C8.35624 3.92913 8.45786 3.81026 8.67873 3.81026H9.5517C9.81344 3.81026 9.87194 3.94488 9.81344 4.13237C9.70395 4.64011 8.6356 6.14793 8.6356 6.14793C8.54373 6.30018 8.50848 6.36655 8.6356 6.53642C8.72935 6.66354 9.03422 6.92716 9.23709 7.1634C9.6102 7.58714 9.89707 7.94263 9.97356 8.18862C10.0594 8.43274 9.93269 8.55986 9.68632 8.55986L9.68745 8.56023Z" fill="white"/>
</svg>
